<svg xmlns="http://www.w3.org/2000/svg" xmlns:xlink="http://www.w3.org/1999/xlink" width="142.987" height="37.876" viewBox="0 0 142.987 37.876"><defs><clipPath id="a"><rect width="142.987" height="37.876" transform="translate(0 0)" fill="#fff"/></clipPath></defs><g transform="translate(0 0)"><g transform="translate(0 0)" clip-path="url(#a)"><path d="M345.693,18.13V15.958l2.189-.25a1.6,1.6,0,0,0,1.177-.946l5.475-8.9a.846.846,0,0,0-.563-1.383l-2.882-.333V1.94h12.468a1.791,1.791,0,0,1,1.433.9l7.28,11.128c.573.9,1.014,1.592,1.743,1.687l2.292.255V18.13H362.294V15.938l1.78-.219c.854-.1,1.552-.485.854-1.525l-.674-1.018H354.31l-.763,1.238c-.476.757,0,1.209.729,1.306l1.782.219V18.13Zm10.4-7.817h6.289l-3.175-4.992-3.114,4.992" transform="translate(-233.321 -1.309)" fill="#fff"/><path d="M283.814,1.94H267.783v2.2l2.016.2a1.222,1.222,0,0,1,1.048,1.388v8.715a1.138,1.138,0,0,1-.917,1.271L267.775,16v2.125l16.039.009c7.384,0,10.556-3.588,10.556-8.328,0-4.258-3.173-7.863-10.556-7.863M281.34,15.022h-4.132V5.036h4.132c3.941,0,5.6.916,5.6,4.985,0,4.1-1.659,5-5.6,5" transform="translate(-180.731 -1.309)" fill="#fff"/><path d="M0,18.131H12.972v-2.16l-2.221-.252c-.507-.067-1.016-.385-1.016-1.466V11.648h9.984v2.477c0,.736-.124,1.432-.989,1.528l-2.258.255v2.224H29.444V15.908l-2.288-.255c-.444-.064-.955-.418-.955-1.334V5.894c0-.857.313-1.438.985-1.5l2.258-.255v-2.2H16.472V4.114l2.258.285c.764.1.989.7.989,1.5V8.408H9.734V5.86c0-.956.381-1.4,1.047-1.461l2.191-.255v-2.2H.029v2.2L2.2,4.4c.86.1,1.082.732,1.05,1.554v8.208c0,.916-.254,1.462-1.081,1.559L0,15.972Z" transform="translate(0 -1.31)" fill="#fff"/><path d="M92.54,8.646C92.54,3.565,96.641,0,105.8,0c9.1,0,13.2,3.565,13.2,8.646,0,5.215-4.105,8.745-13.2,8.745-9.154,0-13.256-3.53-13.256-8.745M105.764,3.12c-3.685,0-5.781,1.37-5.781,5.563,0,4.261,2.1,5.63,5.781,5.63s5.789-1.369,5.789-5.63c0-4.193-2.1-5.563-5.789-5.563" transform="translate(-62.459 0)" fill="#fff"/><path d="M176.142,18.131h10.365v-2.16l-2.227-.252a1.2,1.2,0,0,1-1.018-1.337V6.146L191.881,17.5a1.757,1.757,0,0,0,1.338.633h8.133V5.86c0-.578.15-1.363.984-1.461l2.26-.255v-2.2H194.231V4.114l2.263.285c.793.1.984.763.984,1.522v8.017L188.922,2.65a1.613,1.613,0,0,0-1.332-.709H176.142v2.2L178.3,4.4c.761.113,1.048.5,1.048,1.554v8.208c0,.971-.265,1.435-1.081,1.559l-2.129.252Z" transform="translate(-118.885 -1.31)" fill="#fff"/><path d="M103.143,84.2h1.8v4.1h4.69V84.2h1.8v10.3h-1.8V89.86h-4.69v4.646h-1.8Z" transform="translate(-69.615 -56.832)" fill="#fff"/><path d="M137.317,100.191a4.073,4.073,0,0,1-1.595-.3,3.4,3.4,0,0,1-1.183-.816,3.482,3.482,0,0,1-.736-1.241,5.069,5.069,0,0,1,0-3.16,3.484,3.484,0,0,1,.736-1.241,3.4,3.4,0,0,1,1.183-.816,4.446,4.446,0,0,1,3.189,0,3.4,3.4,0,0,1,1.183.816,3.5,3.5,0,0,1,.736,1.241,5.076,5.076,0,0,1,0,3.16,3.492,3.492,0,0,1-.736,1.241,3.4,3.4,0,0,1-1.183.816,4.074,4.074,0,0,1-1.594.3m0-1.3a1.884,1.884,0,0,0,.952-.231,2.007,2.007,0,0,0,.664-.606,2.654,2.654,0,0,0,.382-.844,3.792,3.792,0,0,0,0-1.912,2.559,2.559,0,0,0-.382-.844,2.036,2.036,0,0,0-.664-.6,2.078,2.078,0,0,0-1.9,0,2.034,2.034,0,0,0-.663.6,2.553,2.553,0,0,0-.383.844,3.791,3.791,0,0,0,0,1.912,2.648,2.648,0,0,0,.383.844,2.005,2.005,0,0,0,.663.606,1.887,1.887,0,0,0,.953.231" transform="translate(-90.138 -62.315)" fill="#fff"/><path d="M160.94,92.529H162.5v1.1l.029.029a2.758,2.758,0,0,1,.981-.974,2.615,2.615,0,0,1,1.342-.354,2.79,2.79,0,0,1,1.934.635,2.432,2.432,0,0,1,.707,1.9v5.123h-1.645V95.3a2.028,2.028,0,0,0-.375-1.277,1.362,1.362,0,0,0-1.082-.4,1.785,1.785,0,0,0-.75.152,1.623,1.623,0,0,0-.563.418,1.97,1.97,0,0,0-.361.628,2.245,2.245,0,0,0-.13.765v4.4H160.94Z" transform="translate(-108.624 -62.315)" fill="#fff"/><path d="M192.7,94.507H191.14V93.5h-.029a1.955,1.955,0,0,1-.967.931,3.278,3.278,0,0,1-1.342.282,3.563,3.563,0,0,1-1.537-.31,3.06,3.06,0,0,1-1.09-.844,3.612,3.612,0,0,1-.649-1.263,5.483,5.483,0,0,1-.216-1.566,5,5,0,0,1,.274-1.746,3.5,3.5,0,0,1,.728-1.212,2.818,2.818,0,0,1,1.039-.7,3.3,3.3,0,0,1,1.19-.224,4.024,4.024,0,0,1,.707.065,3.113,3.113,0,0,1,.693.209,2.74,2.74,0,0,1,.613.368,2.053,2.053,0,0,1,.469.527h.029V84.2H192.7Zm-5.743-3.651a3.633,3.633,0,0,0,.123.938,2.564,2.564,0,0,0,.375.822,1.891,1.891,0,0,0,.642.577,1.869,1.869,0,0,0,.923.216,1.847,1.847,0,0,0,.945-.231,1.955,1.955,0,0,0,.649-.606,2.744,2.744,0,0,0,.375-.844,3.789,3.789,0,0,0,.123-.96,3.016,3.016,0,0,0-.556-1.934,1.831,1.831,0,0,0-1.508-.693,1.861,1.861,0,0,0-.974.239,2,2,0,0,0-.649.62,2.578,2.578,0,0,0-.361.866,4.509,4.509,0,0,0-.108.988" transform="translate(-125.072 -56.832)" fill="#fff"/><path d="M218.952,98.33a.872.872,0,0,0,.079.433.334.334,0,0,0,.31.13h.173a1.066,1.066,0,0,0,.231-.029V100c-.058.02-.132.041-.224.065s-.185.046-.281.065-.192.033-.288.043-.178.014-.245.014a1.587,1.587,0,0,1-.837-.2,1,1,0,0,1-.433-.707,2.908,2.908,0,0,1-1.205.693,4.754,4.754,0,0,1-1.378.216,3.38,3.38,0,0,1-.967-.137,2.529,2.529,0,0,1-.815-.4,1.934,1.934,0,0,1-.563-.678,2.089,2.089,0,0,1-.209-.96,2.212,2.212,0,0,1,.253-1.125,1.87,1.87,0,0,1,.664-.678,3,3,0,0,1,.924-.353q.512-.108,1.032-.166a8.392,8.392,0,0,1,.851-.123,4.018,4.018,0,0,0,.714-.123,1.094,1.094,0,0,0,.491-.267.734.734,0,0,0,.181-.541.844.844,0,0,0-.151-.519,1.018,1.018,0,0,0-.375-.31,1.615,1.615,0,0,0-.5-.145,4.05,4.05,0,0,0-.519-.036,2.066,2.066,0,0,0-1.14.289,1.124,1.124,0,0,0-.505.895h-1.645a2.476,2.476,0,0,1,.347-1.2,2.389,2.389,0,0,1,.772-.765,3.174,3.174,0,0,1,1.061-.4,6.33,6.33,0,0,1,1.212-.115,5.123,5.123,0,0,1,1.082.115,3.076,3.076,0,0,1,.96.375,2.078,2.078,0,0,1,.685.671,1.84,1.84,0,0,1,.26,1Zm-1.645-2.078a2,2,0,0,1-.923.3q-.549.051-1.1.151a3.561,3.561,0,0,0-.5.123,1.526,1.526,0,0,0-.433.216.953.953,0,0,0-.3.36,1.241,1.241,0,0,0-.108.541.69.69,0,0,0,.159.462,1.149,1.149,0,0,0,.382.3,1.773,1.773,0,0,0,.491.151,3.034,3.034,0,0,0,.483.043,2.662,2.662,0,0,0,.592-.072,1.951,1.951,0,0,0,.6-.245,1.564,1.564,0,0,0,.469-.44,1.116,1.116,0,0,0,.187-.657Z" transform="translate(-143.289 -62.315)" fill="#fff"/><path d="M251.275,84.2H256.2a3.819,3.819,0,0,1,2.554.736,2.566,2.566,0,0,1,.851,2.049,2.988,2.988,0,0,1-.216,1.219,2.663,2.663,0,0,1-.5.779,1.972,1.972,0,0,1-.57.426q-.281.129-.411.173v.029a1.831,1.831,0,0,1,.5.144,1.474,1.474,0,0,1,.5.368,2.006,2.006,0,0,1,.382.656,2.9,2.9,0,0,1,.152,1.01,9.151,9.151,0,0,0,.137,1.652,2.173,2.173,0,0,0,.426,1.061h-1.934a1.678,1.678,0,0,1-.238-.736q-.036-.4-.036-.779a7.407,7.407,0,0,0-.087-1.219,2.134,2.134,0,0,0-.317-.851,1.346,1.346,0,0,0-.628-.5,2.775,2.775,0,0,0-1.017-.159h-2.655v4.242h-1.8Zm1.8,4.69h2.958a1.878,1.878,0,0,0,1.313-.411,1.6,1.6,0,0,0,.447-1.234,1.908,1.908,0,0,0-.145-.8,1.172,1.172,0,0,0-.4-.484,1.468,1.468,0,0,0-.577-.231,3.838,3.838,0,0,0-.671-.058h-2.929Z" transform="translate(-169.595 -56.832)" fill="#fff"/><path d="M286.708,92.843a3.639,3.639,0,0,1-1.277,1.032,3.788,3.788,0,0,1-1.609.324,3.934,3.934,0,0,1-1.306-.209,2.99,2.99,0,0,1-1.031-.6,2.631,2.631,0,0,1-.671-.96,3.324,3.324,0,0,1-.238-1.291,2.4,2.4,0,0,1,.2-1,3.132,3.132,0,0,1,.534-.815,4.169,4.169,0,0,1,.757-.657,8.608,8.608,0,0,1,.873-.519c-.135-.173-.265-.344-.389-.512a3.991,3.991,0,0,1-.332-.527,3,3,0,0,1-.231-.577,2.311,2.311,0,0,1-.086-.635,2.5,2.5,0,0,1,.195-1.01,2.305,2.305,0,0,1,.541-.772,2.4,2.4,0,0,1,.808-.5,2.77,2.77,0,0,1,.981-.173,3.1,3.1,0,0,1,.96.151,2.265,2.265,0,0,1,1.393,1.234A2.532,2.532,0,0,1,287,85.916a2.328,2.328,0,0,1-.152.852,2.841,2.841,0,0,1-.4.714,3.243,3.243,0,0,1-.592.584,5.314,5.314,0,0,1-.714.462l1.6,1.933q.086-.245.173-.563a5.67,5.67,0,0,0,.144-.822H288.5a7.278,7.278,0,0,1-.268,1.328,4.81,4.81,0,0,1-.541,1.2l1.977,2.4h-2.02Zm-2.9-3.608q-.231.144-.505.289a2.481,2.481,0,0,0-.512.361,1.977,1.977,0,0,0-.4.519,1.582,1.582,0,0,0-.166.765,1.691,1.691,0,0,0,.469,1.284,1.654,1.654,0,0,0,1.191.447,2.048,2.048,0,0,0,1.305-.418,1.993,1.993,0,0,0,.375-.375q.151-.2.267-.36Zm.664-4.56a1.072,1.072,0,0,0-.779.31,1.108,1.108,0,0,0-.318.83,1.234,1.234,0,0,0,.094.483,2.615,2.615,0,0,0,.231.433,4.581,4.581,0,0,0,.3.412q.165.2.31.389.231-.158.447-.324a2.851,2.851,0,0,0,.39-.361,1.549,1.549,0,0,0,.274-.44,1.429,1.429,0,0,0,.1-.548,1.258,1.258,0,0,0-.289-.844.955.955,0,0,0-.765-.339" transform="translate(-189.37 -56.323)" fill="#fff"/><path d="M311.293,84.2h4.271a4.81,4.81,0,0,1,2.049.4,3.8,3.8,0,0,1,1.414,1.1,4.718,4.718,0,0,1,.816,1.638,7.671,7.671,0,0,1,0,4.012A4.72,4.72,0,0,1,319.027,93a3.807,3.807,0,0,1-1.414,1.1,4.805,4.805,0,0,1-2.049.4h-4.271Zm1.8,8.831h1.775a4.5,4.5,0,0,0,1.724-.281,2.523,2.523,0,0,0,1.054-.78,2.819,2.819,0,0,0,.519-1.169,7.75,7.75,0,0,0,0-2.9,2.824,2.824,0,0,0-.519-1.169,2.527,2.527,0,0,0-1.054-.779,4.5,4.5,0,0,0-1.724-.282H313.1Z" transform="translate(-210.103 -56.832)" fill="#fff"/></g></g></svg>